<?xml version="1.0" encoding="utf-8"?>
<!-- Generator: Adobe Illustrator 19.2.1, SVG Export Plug-In . SVG Version: 6.00 Build 0)  -->
<svg version="1.1" id="Layer_1" xmlns="http://www.w3.org/2000/svg" xmlns:xlink="http://www.w3.org/1999/xlink" x="0px" y="0px"
	 viewBox="0 0 25.2 33.9" style="enable-background:new 0 0 25.2 33.9;" xml:space="preserve">
<style type="text/css">
	.st0{fill:#EFCA2E;}
</style>
<title>mapIcon1</title>
<path class="st0" d="M25.2,12.7c0,2.5-0.7,5-2.2,7c-3.3,4.6-6.6,9.2-9.9,13.8c-0.5,0.7-0.7,0.4-1.1-0.1c-3.3-4.6-6.8-9.2-10-14
	C-0.9,15-0.6,9.1,2.7,4.9c4.2-5.5,12.1-6.6,17.6-2.3C23.5,5,25.3,8.8,25.2,12.7z M18.7,12.9c0.1-3.3-2.6-6.1-5.9-6.1
	c-3.3-0.1-6.1,2.6-6.1,5.9c0,3.1,3.1,6.5,6.1,6.4C15.9,18.7,18.4,16.1,18.7,12.9z"/>
</svg>
