<svg id="Layer_1" data-name="Layer 1" xmlns="http://www.w3.org/2000/svg" viewBox="0 0 25.24 33.91">
  <defs>
    <style>
      .cls-1 {
        fill: #e85725;
      }
    </style>
  </defs>
  <title>mapIcon3</title>
  <path class="cls-1" d="M25.24,12.72a11.88,11.88,0,0,1-2.17,7c-3.28,4.61-6.65,9.17-9.94,13.77-0.52.73-.73,0.4-1.07-0.08-3.34-4.65-6.77-9.24-10-14A12.32,12.32,0,0,1,2.67,4.94,12.58,12.58,0,0,1,25.24,12.72Zm-6.58.17a6,6,0,0,0-12-.27c0,3.11,3.13,6.53,6.06,6.42A6.72,6.72,0,0,0,18.66,12.89Z" transform="translate(0 0)"/>
</svg>
