<?xml version="1.0" encoding="utf-8"?>
<!-- Generator: Adobe Illustrator 19.2.1, SVG Export Plug-In . SVG Version: 6.00 Build 0)  -->
<svg version="1.1" id="Layer_1" xmlns="http://www.w3.org/2000/svg" xmlns:xlink="http://www.w3.org/1999/xlink" x="0px" y="0px"
	 viewBox="0 0 781.9 135.1" style="enable-background:new 0 0 781.9 135.1;" xml:space="preserve">
<style type="text/css">
	.st0{fill:#EFCA2E;}
	.st1{fill:#231F20;}
	.st2{fill:#ED1C24;}
	.st3{fill:#E85725;}
	.st4{fill:#E0962B;}
	.st5{font-family:'ArialMT';}
	.st6{font-size:20px;}
	.st7{fill:none;stroke:#000000;stroke-miterlimit:10;}
</style>
<title>mapKey</title>
<path class="st0" d="M73.9,72.9c0.1,7.4-2.1,14.6-6.4,20.6c-9.6,13.5-19.4,26.9-29.1,40.4c-1.5,2.1-2.1,1.2-3.1-0.3
	C25.6,120,15.5,106.6,6,92.7c-8.8-12.9-7.8-30.2,1.8-42.4c9.8-12.6,26.6-17.5,41.7-12.2C63.8,43,73.9,57.4,73.9,72.9z M54.6,73.4
	c0.1-9.8-7.6-17.9-17.4-18.1c-8-0.1-17.7,6.4-17.9,17.4c-0.2,9.1,9.2,19.2,17.8,18.8C45.9,91.1,54.5,82.2,54.6,73.4L54.6,73.4z"/>
<path class="st1" d="M40.3,85.6h-3.1V66c-0.9,0.8-1.9,1.5-2.9,2.1c-1,0.6-2.1,1.2-3.2,1.6v-3c1.6-0.8,3.2-1.7,4.5-2.9
	c1.1-0.9,2-2.1,2.7-3.3h2L40.3,85.6L40.3,85.6z"/>
<path class="st1" d="M280.9,82.6v3h-16.6c0-0.7,0.1-1.5,0.4-2.1c0.5-1.2,1.1-2.3,2-3.3c1.2-1.4,2.6-2.6,4-3.8c2-1.6,3.9-3.3,5.5-5.3
	c0.9-1,1.4-2.3,1.4-3.7c0-1.2-0.5-2.3-1.3-3.1c-0.9-0.9-2.1-1.3-3.4-1.3c-1.3-0.1-2.6,0.4-3.5,1.3c-0.9,1-1.4,2.3-1.4,3.7l-3.1-0.3
	c0.1-2,0.9-4,2.4-5.4c1.6-1.3,3.6-2,5.7-1.8c2.1-0.1,4.1,0.6,5.7,2c1.4,1.3,2.2,3.1,2.1,5c0,1-0.2,2.1-0.6,3c-0.5,1.1-1.2,2.2-2,3.1
	c-1.5,1.6-3.1,3-4.7,4.4c-1.8,1.5-3,2.6-3.5,3.2c-0.5,0.5-0.9,1.1-1.3,1.7L280.9,82.6L280.9,82.6z"/>
<path class="st1" d="M500.7,79l3.1-0.4c0.2,1.4,0.8,2.7,1.8,3.8c0.8,0.8,2,1.2,3.1,1.2c1.4,0,2.7-0.5,3.7-1.5c1-1,1.5-2.3,1.5-3.7
	c0-1.3-0.5-2.6-1.4-3.5c-0.9-0.9-2.2-1.4-3.5-1.4c-0.7,0-1.5,0.1-2.2,0.3l0.3-2.7h0.5c1.3,0,2.5-0.3,3.5-1c1.1-0.7,1.7-1.9,1.6-3.2
	c0-1.1-0.4-2.1-1.2-2.8c-0.8-0.8-1.9-1.2-3-1.1c-1.1,0-2.2,0.4-3,1.1c-0.9,0.9-1.4,2.1-1.5,3.4l-3.1-0.6c0.3-1.9,1.2-3.6,2.6-4.8
	c1.4-1.2,3.2-1.8,5-1.7c1.3,0,2.6,0.3,3.8,0.9c1.1,0.5,2,1.4,2.6,2.4c0.6,1,0.9,2.1,0.9,3.2c0,1.1-0.3,2.1-0.9,3
	c-0.6,0.9-1.5,1.7-2.6,2.1c1.4,0.3,2.6,1,3.5,2.1c0.8,1.2,1.3,2.6,1.2,4c0,2.1-0.8,4.1-2.4,5.6c-1.6,1.5-3.8,2.3-6,2.3
	c-2,0.1-4-0.7-5.5-2C501.8,82.7,500.9,80.9,500.7,79z"/>
<path class="st1" d="M746.5,85.6v-6h-10.9v-2.8L747,60.5h2.5v16.2h3.4v2.8h-3.4v6H746.5L746.5,85.6z M746.5,76.8V65.5l-7.8,11.3
	H746.5z"/>
<path class="st2" d="M781.9,72.9c0.1,7.4-2.1,14.6-6.3,20.6c-9.6,13.5-19.5,26.9-29.1,40.4c-1.5,2.1-2.1,1.2-3.1-0.3
	c-9.8-13.6-19.8-27.1-29.3-41c-8.8-12.9-7.8-30.2,1.8-42.4c9.8-12.6,26.6-17.5,41.7-12.2C771.7,43,781.9,57.4,781.9,72.9z
	 M762.5,73.4c0.1-9.8-7.6-17.9-17.4-18.1c-8-0.1-17.7,6.4-17.9,17.4c-0.2,9.1,9.2,19.2,17.8,18.8C753.8,91.1,762.4,82.2,762.5,73.4z
	"/>
<path class="st3" d="M546.7,73.2c0.1,7.3-2.1,14.5-6.3,20.5c-9.6,13.5-19.4,26.8-29.1,40.3c-1.5,2.1-2.1,1.2-3.1-0.2
	c-9.8-13.6-19.8-27-29.2-40.9c-8.6-13-7.9-30.1,1.8-42.3c12.3-16.1,35.4-19.2,51.6-6.9C541.5,50.6,546.8,61.6,546.7,73.2z
	 M527.5,73.7c0.2-9.7-7.5-17.7-17.2-17.9c-9.7-0.2-17.7,7.5-17.9,17.2c0,9.1,9.2,19.1,17.7,18.8C519.4,90.6,526.7,83,527.5,73.7z"/>
<path class="st4" d="M309.9,73.2c0.1,7.3-2.1,14.5-6.3,20.5c-9.6,13.5-19.4,26.8-29.1,40.3c-1.5,2.1-2.1,1.2-3.1-0.2
	c-9.8-13.6-19.8-27-29.2-40.9c-8.6-13-7.9-30.1,1.8-42.3c12.3-16.1,35.4-19.2,51.6-6.9C304.6,50.6,310,61.6,309.9,73.2z M290.6,73.7
	c0.2-9.7-7.5-17.7-17.2-17.9s-17.7,7.5-17.9,17.2c0,9.1,9.2,19.1,17.7,18.8C282.6,90.6,289.9,83,290.6,73.7z"/>
<text transform="matrix(1 0 0 1 290.7867 25.3198)" class="st5 st6">LEVEL OF SEVERITY</text>
<line class="st7" x1="43.1" y1="17" x2="285.1" y2="17"/>
<line class="st7" x1="494.6" y1="17" x2="736.6" y2="17"/>
</svg>
