<svg id="Layer_1" data-name="Layer 1" xmlns="http://www.w3.org/2000/svg" viewBox="0 0 85.33 85.75">
  <title>searchIcon</title>
  <path d="M83.55,75.45L72.15,64a6,6,0,0,0-6.5-1.3,0.1,0.1,0,0,0-.1-0.1L60,57.15a35.87,35.87,0,1,0-2.9,2.8l5.4,5.4a5.94,5.94,0,0,0,1,7.2L75,84a5.92,5.92,0,0,0,4.2,1.8A6.16,6.16,0,0,0,83.55,75.45ZM13,55.75a30.3,30.3,0,1,1,42.9,0A30.42,30.42,0,0,1,13,55.75Zm67.7,25.4a1.93,1.93,0,0,1-2.8,0l-11.4-11.4a1.93,1.93,0,0,1,0-2.8,1.93,1.93,0,0,1,2.8,0l11.4,11.3A2.05,2.05,0,0,1,80.75,81.15Z"/>
</svg>
